<svg  xmlns="http://www.w3.org/2000/svg" xmlns:xlink="http://www.w3.org/1999/xlink" width="835" height="200" viewBox="0 0 859 224"><path transform="translate(0 100)" d="M46.0938,-81.6406L57.4219,-76.5625Q58.2031,-76.5625 57.4219,-75.7812L53.5156,-73.0469L53.5156,-57.4219L78.5156,-57.4219L82.4219,-62.8906L91.0156,-57.0312Q91.7969,-56.6406 91.0156,-56.25L87.1094,-52.7344L87.1094,-47.6562Q87.1094,-33.5938 87.8906,-23.0469Q83.9844,-20.3125 79.6875,-19.9219L79.6875,-27.3438L53.5156,-27.3438Q53.5156,-23.8281 53.5156,-15.2344Q53.9062,-0.78125 53.9062,8.20312Q51.1719,10.9375 45.3125,11.3281Q46.0938,-4.29688 46.0938,-27.3438L20.3125,-27.3438L20.3125,-21.0938Q17.1875,-18.3594 12.1094,-18.3594Q12.1094,-20.7031 12.5,-24.6094Q12.8906,-41.4062 12.8906,-54.2969L12.8906,-62.1094L21.4844,-57.4219L46.0938,-57.4219L46.0938,-81.6406ZM79.6875,-55.0781L53.5156,-55.0781L53.5156,-29.6875L79.6875,-29.6875L79.6875,-55.0781ZM20.3125,-55.0781L20.3125,-29.6875L46.0938,-29.6875L46.0938,-55.0781L20.3125,-55.0781Z"></path><path transform="translate(100 100)" d="M83.2031,10.5469Q60.1562,0.78125 49.2188,-11.7188Q35.1562,2.73438 5.07812,11.3281L4.29688,9.76562Q34.7656,-3.51562 44.5312,-17.1875Q33.9844,-31.6406 30.0781,-57.4219L11.7188,-57.4219L6.25,-57.0312L5.07812,-59.7656L80.0781,-59.7656L85.5469,-66.7969L94.9219,-58.5938L94.5312,-57.4219L70.7031,-57.4219Q64.4531,-31.25 53.9062,-17.9688Q66.4062,-5.07812 95.7031,3.51562L95.3125,5.46875Q85.1562,4.29688 83.2031,10.5469ZM33.9844,-57.4219Q39.8438,-35.5469 49.2188,-23.4375Q57.0312,-35.5469 61.7188,-57.4219L33.9844,-57.4219ZM39.8438,-80.8594Q46.875,-78.125 52.7344,-73.0469Q55.4688,-70.7031 55.4688,-68.3594Q54.2969,-62.8906 49.6094,-60.9375Q48.0469,-60.9375 47.2656,-63.6719Q45.7031,-72.6562 39.0625,-80.0781L39.8438,-80.8594Z"></path><path transform="translate(200 100)" d="M11.7188,-77.7344L21.0938,-73.0469L78.9062,-73.0469L83.2031,-78.5156L91.7969,-72.6562Q92.5781,-72.2656 91.7969,-71.4844L87.8906,-68.75L87.8906,1.95312Q88.2812,7.8125 77.3438,10.9375Q76.1719,11.3281 75.7812,10.1562Q76.1719,3.51562 62.8906,0.78125L63.2812,-0.78125L75.7812,0.390625Q80.8594,1.17188 80.4688,-3.90625L80.4688,-70.7031L19.1406,-70.7031L19.1406,8.59375Q16.0156,10.5469 11.3281,10.9375Q11.7188,1.95312 11.7188,-17.9688L11.7188,-77.7344ZM49.6094,-56.25Q56.6406,-49.2188 62.1094,-42.1875Q65.625,-52.7344 67.1875,-64.0625L75.7812,-58.9844Q76.5625,-58.5938 76.5625,-58.5938Q76.5625,-58.2031 75.7812,-57.8125Q73.0469,-56.25 72.2656,-53.9062Q69.9219,-44.1406 66.4062,-36.3281Q70.3125,-31.25 73.0469,-26.1719Q75,-23.0469 75,-20.7031Q74.2188,-14.8438 69.9219,-13.6719Q68.3594,-13.6719 67.9688,-16.4062Q66.4062,-22.6562 63.2812,-29.6875Q56.25,-17.1875 45.3125,-8.59375L44.1406,-9.76562Q53.125,-20.3125 59.7656,-36.3281Q55.0781,-46.0938 48.8281,-55.4688L49.6094,-56.25ZM24.2188,-58.2031Q30.4688,-51.9531 35.5469,-45.3125Q37.8906,-54.6875 39.8438,-64.4531L48.4375,-59.7656Q49.6094,-58.9844 48.4375,-58.2031Q45.7031,-57.4219 44.9219,-54.6875Q43.3594,-48.4375 40.2344,-39.4531Q41.4062,-37.8906 43.75,-34.7656Q45.7031,-31.25 46.875,-29.6875Q48.8281,-26.1719 48.8281,-23.8281Q48.4375,-17.9688 43.75,-17.1875Q42.5781,-17.1875 41.7969,-19.1406Q41.7969,-19.1406 41.4062,-19.9219Q41.4062,-20.3125 41.0156,-21.4844Q39.8438,-25.7812 37.1094,-32.4219Q31.6406,-22.2656 21.875,-11.7188L21.0938,-12.8906Q28.9062,-25.7812 33.5938,-39.4531Q29.6875,-48.0469 23.0469,-57.4219L24.2188,-58.2031Z"></path><path transform="translate(300 100)" d="M87.1094,-32.8125L96.875,-24.2188L96.4844,-23.4375L53.5156,-23.4375L53.5156,2.73438Q54.2969,7.8125 42.5781,11.3281Q41.7969,11.7188 41.4062,10.5469Q41.4062,4.6875 29.6875,1.5625L30.0781,-0L41.4062,1.17188Q46.0938,1.95312 45.7031,-2.73438L45.7031,-23.4375L10.9375,-23.4375L5.46875,-23.0469L4.29688,-25.7812L45.7031,-25.7812L45.7031,-37.1094L52.7344,-34.375L66.0156,-47.2656L25,-47.2656L19.9219,-46.875L18.75,-49.6094L66.0156,-49.6094L71.0938,-53.9062L78.9062,-46.0938Q79.2969,-45.7031 79.2969,-45.3125Q78.9062,-44.9219 78.5156,-44.9219L73.8281,-44.1406L55.4688,-33.2031L56.25,-32.8125Q57.4219,-32.8125 56.25,-32.0312L53.5156,-29.6875L53.5156,-25.7812L81.25,-25.7812L87.1094,-32.8125ZM40.625,-82.4219Q47.6562,-80.0781 52.3438,-76.9531Q54.6875,-74.6094 54.6875,-72.6562Q54.2969,-68.75 50.3906,-66.4062L81.6406,-66.4062L86.3281,-71.4844L94.5312,-63.6719Q95.3125,-62.5 94.1406,-62.5L89.8438,-61.7188L78.5156,-52.3438L77.3438,-53.5156L82.0312,-64.0625L17.5781,-64.0625Q17.9688,-62.8906 17.5781,-60.5469Q17.5781,-59.375 17.5781,-58.9844Q16.0156,-51.5625 10.5469,-50.3906Q6.25,-50.7812 5.85938,-53.9062Q5.85938,-55.4688 7.42188,-56.6406Q14.0625,-60.9375 14.8438,-72.2656L16.0156,-72.2656Q16.0156,-71.4844 16.4062,-70.3125Q17.1875,-67.5781 17.1875,-66.4062L48.8281,-66.4062Q47.6562,-67.1875 47.2656,-68.3594Q46.0938,-74.2188 39.8438,-81.6406L40.625,-82.4219Z"></path><path transform="translate(400 100)" d="M59.7656,-81.25L71.0938,-76.1719Q71.875,-75.7812 71.0938,-74.6094L67.5781,-72.2656L67.5781,-44.1406L82.4219,-44.1406L87.8906,-50.7812L96.4844,-42.9688L96.0938,-42.1875L67.5781,-42.1875L67.5781,-37.8906Q67.5781,-32.8125 67.5781,-18.75Q67.9688,-0.390625 67.9688,8.59375Q66.0156,10.5469 59.375,10.9375Q59.7656,-2.34375 59.7656,-37.5L59.7656,-42.1875L40.625,-42.1875L35.5469,-41.4062L34.375,-44.1406L59.7656,-44.1406L59.7656,-81.25ZM40.625,-22.2656L41.7969,-21.0938Q32.8125,-9.76562 25.3906,0.390625Q24.2188,1.5625 23.0469,3.90625Q22.6562,5.07812 22.2656,5.46875Q22.2656,5.85938 21.875,6.25Q21.875,6.25 21.0938,5.85938L15.2344,-1.17188Q18.75,-3.90625 18.75,-8.59375L18.75,-43.75L9.375,-43.75L5.07812,-42.9688L3.90625,-46.0938L17.5781,-46.0938L21.4844,-51.5625L30.0781,-45.7031Q30.8594,-45.3125 30.0781,-44.5312L26.1719,-41.4062L26.1719,-9.76562L40.625,-22.2656ZM14.4531,-78.9062Q22.6562,-75.3906 28.5156,-70.7031Q30.4688,-69.5312 30.4688,-66.0156Q29.6875,-60.9375 25.7812,-58.9844Q24.2188,-58.9844 23.4375,-61.3281Q21.4844,-68.75 13.6719,-78.5156L14.4531,-78.9062Z"></path><path transform="translate(500 100)" d="M44.9219,-45.3125L53.125,-39.0625Q53.5156,-38.6719 53.9062,-38.2812Q53.5156,-37.8906 53.125,-37.8906Q50,-37.5 48.0469,-33.9844Q41.7969,-23.4375 35.1562,-16.0156Q39.4531,-7.42188 48.0469,-1.95312Q49.2188,-1.17188 50,-2.73438L54.6875,-20.3125L55.8594,-19.9219L55.4688,-6.25Q54.2969,0.390625 58.5938,5.07812Q57.0312,7.42188 53.5156,7.42188Q41.4062,6.64062 32.0312,-7.03125Q31.6406,-7.8125 31.25,-8.98438Q30.4688,-10.1562 30.0781,-10.5469Q21.0938,-1.5625 3.51562,6.25L2.34375,5.07812Q18.3594,-5.46875 27.3438,-16.0156Q22.6562,-26.1719 21.0938,-49.2188L9.76562,-48.0469L5.07812,-46.875L3.51562,-50L21.0938,-51.9531Q21.0938,-53.125 21.0938,-56.25Q20.7031,-59.375 20.7031,-61.3281Q20.7031,-64.4531 20.3125,-71.0938Q20.3125,-77.7344 19.9219,-80.8594L30.4688,-76.5625Q31.25,-76.1719 30.4688,-75.7812L27.3438,-73.0469Q27.3438,-67.9688 27.3438,-64.0625Q27.3438,-61.7188 27.7344,-57.8125Q27.7344,-54.2969 27.7344,-52.3438L44.9219,-54.2969L48.8281,-61.3281L58.2031,-54.2969L57.8125,-53.5156L27.7344,-50Q28.9062,-32.8125 32.4219,-22.2656Q37.1094,-28.9062 41.4062,-36.7188Q43.75,-41.7969 44.9219,-45.3125ZM89.0625,2.34375Q89.4531,7.42188 78.9062,10.9375Q77.7344,11.3281 77.7344,10.9375Q77.3438,10.9375 77.3438,10.1562Q77.3438,4.29688 64.4531,1.17188L64.8438,-0.390625L76.9531,0.78125Q82.0312,1.5625 81.6406,-3.51562L81.6406,-80.8594L92.1875,-76.1719Q92.9688,-75.3906 92.1875,-75.3906L89.0625,-72.6562L89.0625,2.34375ZM63.2812,-66.4062L73.0469,-62.1094Q73.8281,-61.3281 73.0469,-60.9375L70.3125,-58.5938L70.3125,-16.0156Q67.5781,-13.2812 62.8906,-13.2812Q63.2812,-17.5781 63.2812,-23.8281Q63.2812,-28.9062 63.2812,-43.3594L63.2812,-66.4062ZM33.9844,-75Q34.7656,-75 35.9375,-74.6094Q42.5781,-72.6562 46.0938,-70.3125Q48.0469,-69.1406 48.0469,-66.7969Q47.6562,-62.5 44.1406,-60.9375Q42.5781,-60.9375 41.4062,-62.8906Q38.2812,-69.9219 33.5938,-74.2188L33.9844,-75Z"></path><path transform="translate(0 200)" d="M40.625,-1.17188L14.8438,-1.17188L14.8438,-3.90625L19.9219,-3.90625Q23.0469,-3.90625 23.0469,-7.8125L23.0469,-66.0156L15.625,-66.0156Q6.25,-67.5781 4.29688,-48.0469L1.5625,-48.0469L1.5625,-69.1406L53.5156,-69.1406L53.5156,-48.0469L51.1719,-48.0469Q49.2188,-67.1875 39.4531,-66.0156L32.0312,-66.0156L32.0312,-7.8125Q32.0312,-3.90625 35.1562,-3.90625L40.625,-3.90625L40.625,-1.17188Z"></path><path transform="translate(55 200)" d="M7.8125,-7.8125L7.8125,-66.7969L2.73438,-66.7969L2.73438,-69.9219L4.6875,-69.9219Q10.5469,-69.9219 16.0156,-70.7031L16.0156,-33.2031Q21.4844,-44.5312 29.6875,-44.5312Q41.0156,-44.1406 41.4062,-30.8594L41.4062,-7.8125Q41.4062,-3.90625 44.5312,-3.90625L46.4844,-3.90625L46.4844,-1.17188L28.5156,-1.17188L28.5156,-3.90625L30.4688,-3.90625Q33.5938,-3.90625 33.5938,-7.8125L33.5938,-30.4688Q33.5938,-38.6719 27.3438,-38.6719Q18.3594,-36.3281 16.0156,-23.0469L16.0156,-7.8125Q16.0156,-3.90625 19.1406,-3.90625L21.0938,-3.90625L21.0938,-1.17188L2.73438,-1.17188L2.73438,-3.90625L5.07812,-3.90625Q7.8125,-3.90625 7.8125,-7.8125Z"></path><path transform="translate(104 200)" d="M13.2812,-27.3438L31.25,-27.3438Q31.25,-41.7969 22.2656,-41.4062Q13.2812,-41.7969 13.2812,-27.3438ZM37.8906,-14.0625L40.2344,-14.0625Q37.1094,0.390625 23.0469,0.390625Q4.6875,-0.78125 3.51562,-21.875Q4.6875,-42.9688 22.2656,-44.5312Q39.8438,-43.3594 40.625,-22.6562L13.2812,-22.6562L13.2812,-21.0938Q13.2812,-2.73438 24.6094,-2.34375Q34.7656,-2.34375 37.8906,-14.0625Z"></path><path transform="translate(148 200)" d=""></path><path transform="translate(181 200)" d="M18.75,-66.0156L18.75,-34.375L28.5156,-34.375Q43.75,-33.5938 42.9688,-50.3906Q43.75,-66.7969 28.5156,-66.0156L18.75,-66.0156ZM3.125,-66.0156L3.125,-69.1406L29.6875,-69.1406Q51.9531,-67.5781 53.125,-50.3906Q51.9531,-32.8125 29.6875,-31.25L18.75,-31.25L18.75,-7.8125Q18.75,-3.90625 21.875,-3.90625L29.2969,-3.90625L29.2969,-1.17188L2.34375,-1.17188L2.34375,-3.90625L6.64062,-3.90625Q9.76562,-3.90625 9.76562,-7.8125L9.76562,-62.1094Q9.76562,-66.0156 6.64062,-66.0156L3.125,-66.0156Z"></path><path transform="translate(236 200)" d="M16.4062,-44.5312L16.4062,-34.375Q21.4844,-44.1406 27.7344,-44.5312Q32.8125,-44.1406 33.2031,-39.0625Q32.8125,-33.9844 28.125,-33.5938Q24.6094,-33.5938 23.8281,-37.1094Q23.8281,-37.5 23.4375,-37.8906Q23.0469,-37.5 22.6562,-37.1094Q17.1875,-31.25 16.4062,-22.6562L16.4062,-7.8125Q16.4062,-3.90625 19.5312,-3.90625L23.4375,-3.90625L23.4375,-1.17188L1.95312,-1.17188L1.95312,-3.90625L5.46875,-3.90625Q8.59375,-3.90625 8.59375,-7.8125L8.59375,-40.2344L1.95312,-40.2344L1.95312,-43.3594L5.07812,-43.3594Q10.9375,-43.3594 16.4062,-44.5312Z"></path><path transform="translate(269 200)" d="M21.875,-41.4062Q12.1094,-42.1875 12.8906,-21.875Q12.5,-1.5625 21.875,-2.34375Q32.0312,-1.17188 31.25,-21.875Q31.6406,-42.1875 21.875,-41.4062ZM21.875,-44.5312Q38.2812,-42.5781 40.625,-21.875Q39.0625,-0.78125 21.875,0.390625Q4.6875,-0.78125 3.125,-21.875Q5.07812,-42.9688 21.875,-44.5312Z"></path><path transform="translate(313 200)" d="M18.75,-44.5312L18.75,-3.125Q17.9688,17.9688 5.07812,19.9219Q-1.95312,19.5312 -2.34375,13.6719Q-1.95312,9.76562 1.5625,9.375Q5.85938,9.76562 5.85938,13.2812Q5.85938,14.8438 5.07812,15.625Q4.6875,17.1875 5.85938,17.1875Q10.5469,16.4062 10.5469,3.90625L10.5469,-40.2344L4.29688,-40.2344L4.29688,-43.3594L7.8125,-43.3594Q13.6719,-43.3594 18.75,-44.5312ZM9.375,-65.2344Q9.76562,-70.3125 14.8438,-70.7031Q19.5312,-70.3125 19.9219,-65.2344Q19.5312,-60.5469 14.8438,-60.1562Q9.76562,-60.5469 9.375,-65.2344Z"></path><path transform="translate(340 200)" d="M13.2812,-27.3438L31.25,-27.3438Q31.25,-41.7969 22.2656,-41.4062Q13.2812,-41.7969 13.2812,-27.3438ZM37.8906,-14.0625L40.2344,-14.0625Q37.1094,0.390625 23.0469,0.390625Q4.6875,-0.78125 3.51562,-21.875Q4.6875,-42.9688 22.2656,-44.5312Q39.8438,-43.3594 40.625,-22.6562L13.2812,-22.6562L13.2812,-21.0938Q13.2812,-2.73438 24.6094,-2.34375Q34.7656,-2.34375 37.8906,-14.0625Z"></path><path transform="translate(384 200)" d="M37.8906,-14.0625L40.2344,-14.0625Q37.1094,0.390625 23.8281,0.390625Q5.46875,-1.17188 3.90625,-21.875Q6.64062,-42.1875 23.8281,-44.5312Q37.5,-43.3594 39.0625,-32.0312Q38.6719,-26.9531 33.9844,-26.5625Q29.2969,-26.9531 28.9062,-31.25Q29.2969,-34.375 31.6406,-35.5469Q32.4219,-36.3281 32.0312,-37.1094Q30.0781,-41.4062 24.6094,-41.4062Q13.6719,-41.4062 13.6719,-21.875Q13.6719,-2.34375 24.6094,-2.34375Q33.9844,-2.34375 37.8906,-14.0625Z"></path><path transform="translate(428 200)" d="M1.5625,-38.2812L1.5625,-42.5781L7.03125,-42.5781L7.03125,-56.25L14.8438,-56.25L14.8438,-42.5781L23.4375,-42.5781L23.4375,-38.2812L14.8438,-38.2812L14.8438,-8.98438Q14.8438,-4.6875 18.3594,-4.6875Q21.0938,-4.6875 23.4375,-10.1562L26.1719,-8.98438Q23.0469,0.390625 15.625,0.390625Q7.42188,0.390625 7.03125,-8.59375L7.03125,-38.2812L1.5625,-38.2812Z"></path><path transform="translate(455 200)" d=""></path><path transform="translate(488 200)" d="M29.6875,-1.17188L3.51562,-1.17188L3.51562,-3.90625L8.98438,-3.90625Q11.7188,-3.90625 11.7188,-7.8125L11.7188,-62.1094Q11.7188,-66.0156 8.98438,-66.0156L3.51562,-66.0156L3.51562,-69.1406L51.9531,-69.1406L51.9531,-50L49.6094,-50Q48.0469,-67.5781 33.9844,-66.0156L21.0938,-66.0156L21.0938,-37.1094L28.5156,-37.1094Q38.6719,-36.3281 39.0625,-48.0469L41.4062,-48.0469L41.4062,-22.2656L39.0625,-22.2656Q38.2812,-34.7656 28.5156,-33.9844L21.0938,-33.9844L21.0938,-7.8125Q21.0938,-3.90625 23.8281,-3.90625L29.6875,-3.90625L29.6875,-1.17188Z"></path><path transform="translate(543 200)" d="M21.875,-41.4062Q12.1094,-42.1875 12.8906,-21.875Q12.5,-1.5625 21.875,-2.34375Q32.0312,-1.17188 31.25,-21.875Q31.6406,-42.1875 21.875,-41.4062ZM21.875,-44.5312Q38.2812,-42.5781 40.625,-21.875Q39.0625,-0.78125 21.875,0.390625Q4.6875,-0.78125 3.125,-21.875Q5.07812,-42.9688 21.875,-44.5312Z"></path><path transform="translate(587 200)" d="M16.4062,-44.5312L16.4062,-34.375Q21.4844,-44.1406 27.7344,-44.5312Q32.8125,-44.1406 33.2031,-39.0625Q32.8125,-33.9844 28.125,-33.5938Q24.6094,-33.5938 23.8281,-37.1094Q23.8281,-37.5 23.4375,-37.8906Q23.0469,-37.5 22.6562,-37.1094Q17.1875,-31.25 16.4062,-22.6562L16.4062,-7.8125Q16.4062,-3.90625 19.5312,-3.90625L23.4375,-3.90625L23.4375,-1.17188L1.95312,-1.17188L1.95312,-3.90625L5.46875,-3.90625Q8.59375,-3.90625 8.59375,-7.8125L8.59375,-40.2344L1.95312,-40.2344L1.95312,-43.3594L5.07812,-43.3594Q10.9375,-43.3594 16.4062,-44.5312Z"></path><path transform="translate(620 200)" d=""></path><path transform="translate(653 200)" d="M42.5781,-63.2812L47.6562,-48.8281L53.125,-63.6719Q53.9062,-66.0156 51.9531,-66.0156L44.1406,-66.0156Q41.7969,-66.0156 42.5781,-63.2812ZM5.07812,-66.0156L2.73438,-66.0156L2.73438,-69.1406L62.1094,-69.1406L62.1094,-66.0156L60.1562,-66.0156Q57.8125,-66.0156 56.6406,-63.2812L49.2188,-43.75L59.375,-14.4531L75.3906,-63.6719Q76.1719,-66.0156 73.8281,-66.0156L68.3594,-66.0156L68.3594,-69.1406L85.9375,-69.1406L85.9375,-66.0156L83.2031,-66.0156Q79.6875,-65.625 78.125,-61.3281L58.2031,0.390625L55.8594,0.390625L44.5312,-31.25L32.8125,0.390625L30.0781,0.390625L9.76562,-61.3281Q8.20312,-65.625 5.07812,-66.0156ZM29.6875,-66.0156L20.3125,-66.0156Q17.5781,-66.0156 18.75,-63.2812L34.375,-14.0625L42.9688,-36.3281L33.5938,-62.5Q32.4219,-66.0156 29.6875,-66.0156Z"></path><path transform="translate(742 200)" d="M13.2812,-27.3438L31.25,-27.3438Q31.25,-41.7969 22.2656,-41.4062Q13.2812,-41.7969 13.2812,-27.3438ZM37.8906,-14.0625L40.2344,-14.0625Q37.1094,0.390625 23.0469,0.390625Q4.6875,-0.78125 3.51562,-21.875Q4.6875,-42.9688 22.2656,-44.5312Q39.8438,-43.3594 40.625,-22.6562L13.2812,-22.6562L13.2812,-21.0938Q13.2812,-2.73438 24.6094,-2.34375Q34.7656,-2.34375 37.8906,-14.0625Z"></path><path transform="translate(786 200)" d="M16.4062,-70.7031L16.4062,-38.6719Q21.0938,-44.5312 26.9531,-44.5312Q44.1406,-42.5781 46.0938,-21.875Q44.5312,-1.17188 26.9531,0.390625Q19.9219,0.390625 16.4062,-5.46875L16.4062,-0L2.73438,-0L2.73438,-3.125L8.20312,-3.125L8.20312,-66.7969L2.73438,-66.7969L2.73438,-69.9219L5.07812,-69.9219Q9.375,-69.9219 16.4062,-70.7031ZM16.0156,-21.875Q16.0156,-2.34375 26.1719,-2.34375Q36.3281,-2.34375 36.3281,-21.875Q36.3281,-41.0156 26.1719,-41.4062Q16.0156,-41.4062 16.0156,-21.875Z"></path></svg>