<svg  xmlns="http://www.w3.org/2000/svg" xmlns:xlink="http://www.w3.org/1999/xlink" width="871" height="200" viewBox="0 0 895 224"><path transform="translate(0 100)" d="M42.5781,-79.6875Q47.6562,-78.5156 51.5625,-75.7812Q53.5156,-75 52.3438,-71.4844Q50.3906,-66.4062 50.3906,-57.4219Q50.3906,-56.25 50.3906,-55.0781Q52.3438,-55.0781 57.4219,-55.8594Q53.9062,-55.0781 58.5938,-55.8594Q68.75,-57.4219 72.2656,-58.9844Q74.2188,-60.1562 75.7812,-58.9844Q80.4688,-56.6406 84.375,-53.5156Q85.9375,-52.7344 85.9375,-51.9531Q85.9375,-50.7812 84.375,-50Q80.0781,-47.2656 73.4375,-35.9375Q74.6094,-35.5469 76.5625,-32.0312Q77.7344,-29.6875 75,-29.6875Q73.4375,-29.6875 69.9219,-29.2969Q64.8438,-29.2969 50,-28.125L50,-9.375Q50,6.25 47.6562,12.8906Q46.875,14.0625 46.0938,14.0625Q44.9219,13.6719 44.5312,12.5Q43.3594,7.42188 43.3594,-7.8125Q43.3594,-18.3594 43.3594,-27.7344Q35.9375,-26.5625 26.9531,-26.1719Q26.9531,-25 26.9531,-23.4375Q26.5625,-22.2656 25.7812,-21.875Q25.3906,-21.875 24.2188,-22.6562Q20.7031,-25 20.7031,-30.4688Q19.9219,-37.5 18.75,-42.9688Q17.9688,-48.8281 15.2344,-51.1719Q14.4531,-52.7344 14.8438,-53.5156Q15.2344,-54.2969 16.7969,-53.9062Q17.1875,-53.9062 17.9688,-53.5156Q21.4844,-52.7344 22.6562,-51.9531Q23.0469,-51.9531 23.0469,-51.5625Q25.7812,-51.9531 31.25,-52.3438Q39.4531,-53.5156 43.75,-53.9062L43.75,-59.375Q44.1406,-74.2188 41.0156,-76.5625Q39.8438,-78.5156 40.2344,-79.2969Q40.625,-80.0781 42.5781,-79.6875ZM66.0156,-52.3438Q64.0625,-52.3438 59.375,-51.5625Q53.5156,-51.1719 50.3906,-50.7812Q50.3906,-48.0469 50.3906,-41.7969Q50,-35.5469 50,-32.4219Q62.1094,-33.9844 67.5781,-34.7656Q68.75,-38.2812 69.9219,-44.1406Q70.7031,-47.6562 71.0938,-49.2188Q72.2656,-52.7344 66.0156,-52.3438ZM26.9531,-32.4219Q26.9531,-31.25 26.9531,-30.0781Q29.2969,-30.0781 34.375,-30.8594Q40.625,-31.25 43.3594,-31.6406Q43.75,-42.1875 43.75,-50Q41.7969,-49.6094 37.1094,-49.2188Q32.8125,-48.4375 30.4688,-48.0469Q26.9531,-48.0469 25,-48.8281Q26.5625,-38.2812 26.9531,-32.4219Z"></path><path transform="translate(100 100)" d="M96.0938,0.78125Q97.6562,1.17188 97.6562,1.95312Q97.6562,3.125 96.0938,3.51562Q85.5469,5.07812 74.2188,5.07812Q68.3594,5.46875 64.0625,1.5625Q56.25,-5.46875 47.2656,-14.8438Q36.7188,-1.17188 9.375,-0.78125Q7.8125,-0.78125 7.42188,-1.5625Q7.42188,-2.73438 8.98438,-3.125Q33.9844,-7.03125 42.9688,-19.1406Q40.625,-21.875 35.5469,-27.3438Q32.8125,-30.0781 31.6406,-31.6406Q28.125,-35.1562 23.8281,-37.1094Q22.6562,-37.8906 23.0469,-38.2812Q23.0469,-39.0625 24.6094,-39.0625Q30.8594,-39.4531 35.1562,-34.375Q40.2344,-29.2969 46.0938,-23.8281Q48.4375,-29.6875 49.2188,-37.1094Q50,-42.5781 49.2188,-47.2656Q48.8281,-47.6562 48.8281,-48.4375Q35.9375,-46.4844 24.6094,-43.3594Q21.0938,-42.5781 15.625,-45.7031Q14.4531,-46.875 16.0156,-47.6562Q22.2656,-47.6562 30.4688,-49.6094Q51.5625,-54.2969 67.5781,-58.2031Q75.7812,-60.5469 80.4688,-56.25Q82.0312,-54.6875 81.6406,-53.125Q80.8594,-51.9531 78.5156,-51.9531Q78.125,-51.9531 77.3438,-51.9531Q65.625,-51.1719 57.0312,-50Q54.2969,-49.6094 50.7812,-48.8281Q50.7812,-48.8281 51.1719,-48.8281Q55.8594,-46.875 57.4219,-45.3125Q59.375,-44.1406 58.2031,-42.5781Q57.4219,-40.625 56.25,-37.1094Q55.8594,-35.9375 55.8594,-35.5469Q54.6875,-26.1719 50.7812,-19.9219Q62.8906,-10.1562 73.4375,-5.85938Q79.2969,-2.73438 96.0938,0.78125ZM39.0625,-74.2188Q45.7031,-74.2188 50.7812,-72.6562Q56.6406,-70.3125 56.25,-63.6719Q55.8594,-60.5469 52.7344,-61.7188Q44.9219,-65.2344 38.2812,-72.2656Q37.5,-73.0469 37.8906,-73.4375Q37.8906,-74.2188 39.0625,-74.2188Z"></path><path transform="translate(200 100)" d="M75.7812,-71.0938Q80.4688,-69.1406 84.375,-66.0156Q85.9375,-65.2344 84.7656,-61.7188Q82.4219,-57.8125 82.4219,-50.3906Q82.4219,-31.6406 83.9844,-11.3281Q85.5469,2.34375 80.4688,8.59375Q78.125,11.7188 76.1719,8.98438Q71.875,1.5625 65.2344,-5.46875Q64.8438,-6.25 65.2344,-6.64062Q65.2344,-7.03125 66.4062,-6.64062Q67.1875,-6.64062 69.9219,-5.85938Q73.0469,-5.07812 73.4375,-4.6875Q76.5625,-4.29688 76.1719,-7.03125Q76.9531,-10.1562 76.9531,-26.5625Q76.9531,-49.2188 74.6094,-61.7188Q73.8281,-65.625 68.75,-65.2344Q46.875,-63.2812 30.8594,-60.9375Q28.125,-60.1562 25.3906,-62.1094Q25.3906,-37.1094 23.4375,-10.5469Q23.0469,-0.78125 21.4844,3.125Q20.3125,5.07812 18.75,3.51562Q16.7969,-0 16.0156,-3.90625Q15.2344,-6.64062 16.4062,-9.375Q20.3125,-20.3125 19.9219,-46.0938Q20.3125,-59.375 17.9688,-63.6719Q16.7969,-64.8438 17.1875,-65.625Q17.5781,-66.4062 19.1406,-66.0156Q21.4844,-65.625 23.4375,-64.4531Q24.2188,-64.4531 24.6094,-64.0625Q46.0938,-66.0156 63.2812,-69.1406Q66.7969,-69.5312 70.7031,-70.7031Q70.3125,-70.7031 71.4844,-71.0938Q74.2188,-72.2656 75.7812,-71.0938ZM50.3906,-45.3125Q49.6094,-46.0938 50,-46.4844Q50.7812,-46.875 51.5625,-46.4844Q52.3438,-45.7031 54.2969,-44.1406Q57.8125,-41.4062 59.7656,-39.4531Q60.1562,-40.2344 60.9375,-42.5781Q61.3281,-44.1406 61.7188,-44.9219Q63.6719,-52.3438 62.1094,-55.8594Q61.7188,-57.4219 64.0625,-57.0312Q67.1875,-55.8594 69.9219,-53.5156Q71.0938,-52.3438 69.9219,-51.1719Q69.5312,-50.7812 69.1406,-49.6094Q68.75,-48.4375 67.1875,-44.1406Q65.625,-39.4531 63.6719,-35.9375Q64.8438,-34.7656 67.1875,-32.4219Q67.9688,-31.6406 68.3594,-31.25Q73.4375,-25.7812 73.0469,-18.3594Q72.6562,-16.4062 71.875,-16.0156Q70.7031,-16.0156 69.9219,-17.1875Q66.4062,-23.4375 61.3281,-30.4688Q55.4688,-19.5312 47.2656,-14.0625Q46.0938,-13.2812 45.7031,-13.6719Q45.3125,-14.4531 46.0938,-15.2344Q54.2969,-25.3906 58.2031,-35.1562Q53.9062,-40.625 50.3906,-45.3125ZM28.5156,-47.6562Q28.125,-48.4375 28.5156,-48.8281Q28.9062,-48.8281 29.6875,-48.4375Q34.375,-44.5312 39.0625,-39.8438Q39.4531,-40.625 39.8438,-42.1875Q40.2344,-43.3594 40.2344,-44.1406Q42.5781,-50 40.625,-53.5156Q40.2344,-54.2969 40.625,-54.6875Q41.4062,-55.0781 42.1875,-54.6875Q42.9688,-54.2969 44.9219,-53.5156Q47.2656,-52.3438 48.0469,-51.5625Q49.2188,-51.1719 48.0469,-49.2188Q47.2656,-48.0469 46.0938,-44.1406Q45.3125,-42.9688 45.3125,-42.5781Q44.1406,-39.0625 42.5781,-35.9375Q43.75,-34.7656 44.1406,-34.375Q48.8281,-28.125 47.6562,-21.4844Q47.2656,-19.9219 46.4844,-19.9219Q45.7031,-19.9219 44.9219,-21.0938Q44.5312,-21.875 43.3594,-24.2188Q42.5781,-25.3906 39.8438,-30.0781Q34.375,-20.3125 26.1719,-13.2812Q25,-12.1094 24.6094,-12.5Q24.2188,-13.2812 25,-14.4531Q30.4688,-21.0938 37.1094,-34.7656Q34.7656,-38.6719 29.6875,-46.0938Q28.9062,-47.2656 28.5156,-47.6562Z"></path><path transform="translate(300 100)" d="M12.8906,-23.4375Q14.0625,-23.4375 16.7969,-23.8281Q24.2188,-24.2188 28.125,-25Q29.6875,-25.3906 33.2031,-25.7812Q43.3594,-26.9531 49.2188,-27.7344Q48.4375,-32.0312 44.1406,-35.9375Q42.9688,-36.7188 43.3594,-37.5Q43.3594,-37.8906 44.9219,-37.8906Q48.0469,-37.5 50,-36.3281Q53.9062,-41.4062 56.25,-45.7031Q56.6406,-46.4844 56.25,-46.875Q56.25,-47.2656 55.0781,-46.875Q48.0469,-45.7031 38.6719,-41.7969Q35.5469,-39.8438 30.4688,-44.9219Q29.6875,-45.3125 29.6875,-46.0938Q30.0781,-46.4844 30.8594,-46.4844Q42.1875,-47.6562 49.2188,-49.2188Q54.2969,-50 57.0312,-51.9531Q58.5938,-52.7344 59.7656,-51.5625Q63.2812,-50 66.4062,-46.875Q67.9688,-45.7031 65.625,-44.1406Q60.9375,-42.9688 51.9531,-34.7656Q51.9531,-34.375 52.3438,-33.9844Q52.7344,-33.5938 53.5156,-31.6406Q54.2969,-30.4688 54.6875,-28.5156Q58.9844,-28.9062 66.4062,-30.0781Q74.6094,-31.25 78.125,-31.6406Q86.7188,-33.5938 91.4062,-28.5156Q93.3594,-26.5625 92.9688,-25Q92.1875,-23.4375 89.4531,-23.8281Q75.3906,-25.7812 64.8438,-25Q63.2812,-24.6094 60.5469,-24.6094Q57.4219,-24.2188 55.8594,-24.2188Q57.0312,-19.1406 57.0312,-11.3281Q57.4219,4.29688 50.7812,11.7188Q48.8281,14.0625 46.875,11.3281Q40.625,4.6875 35.9375,1.5625Q34.7656,0.78125 35.1562,-0Q35.5469,-0.78125 36.7188,-0.390625Q40.2344,0.390625 44.1406,0.78125Q48.4375,1.5625 49.2188,-2.34375Q50.7812,-7.42188 50.7812,-15.625Q50.7812,-20.3125 50,-23.4375Q33.5938,-21.4844 20.7031,-18.3594Q17.9688,-16.7969 12.1094,-21.4844Q11.3281,-22.2656 11.3281,-23.0469Q11.7188,-23.4375 12.8906,-23.4375ZM22.6562,-64.4531Q23.0469,-65.2344 23.4375,-65.625Q24.2188,-65.625 24.6094,-64.8438Q26.5625,-62.5 26.9531,-60.5469Q27.7344,-60.5469 29.2969,-60.9375Q31.6406,-60.9375 38.6719,-62.1094Q53.125,-64.4531 62.8906,-65.625Q65.2344,-66.0156 69.1406,-67.1875Q71.4844,-67.9688 72.6562,-67.9688Q74.6094,-68.3594 75.7812,-67.5781Q81.25,-64.0625 84.375,-60.5469Q85.9375,-58.2031 83.5938,-57.4219Q80.8594,-57.4219 76.5625,-55.8594Q76.1719,-55.8594 75,-55.4688Q73.0469,-54.6875 69.1406,-53.125Q67.9688,-52.7344 67.5781,-53.125Q67.5781,-53.5156 67.9688,-54.2969Q68.75,-55.4688 69.9219,-57.4219Q71.4844,-59.7656 71.875,-60.5469Q73.0469,-62.8906 69.1406,-62.5Q65.2344,-62.1094 66.4062,-62.1094Q43.3594,-59.375 32.8125,-57.4219Q30.4688,-56.6406 26.9531,-58.5938Q26.9531,-58.2031 26.9531,-58.2031Q25,-51.1719 21.875,-45.7031Q19.5312,-42.5781 17.5781,-44.9219Q14.8438,-49.6094 17.1875,-52.3438Q21.4844,-58.5938 22.6562,-64.4531ZM42.1875,-78.5156Q46.4844,-78.5156 50.3906,-76.9531Q55.4688,-74.6094 53.9062,-68.75Q53.125,-66.4062 50.7812,-67.5781Q44.9219,-71.0938 41.4062,-76.9531Q41.0156,-78.5156 42.1875,-78.5156Z"></path><path transform="translate(400 100)" d="M58.9844,-78.5156Q63.6719,-77.7344 67.9688,-75.3906Q70.7031,-73.8281 69.5312,-71.0938Q67.5781,-64.8438 67.5781,-54.2969L67.5781,-46.0938Q75.7812,-48.0469 82.4219,-49.6094Q88.6719,-51.1719 93.75,-46.4844Q95.3125,-44.9219 94.9219,-43.75Q94.1406,-42.1875 91.7969,-42.5781Q84.375,-43.3594 75.7812,-42.1875Q71.875,-42.1875 67.5781,-41.4062Q67.5781,-35.5469 67.1875,-23.4375Q67.1875,-13.6719 67.1875,-9.76562Q66.7969,7.03125 65.2344,12.1094Q64.4531,13.6719 64.0625,14.0625Q63.2812,13.6719 62.5,12.1094Q61.3281,5.85938 60.9375,-6.64062Q60.9375,-21.4844 60.9375,-40.2344Q59.375,-39.8438 56.6406,-39.4531Q50.3906,-37.8906 48.0469,-37.1094Q45.3125,-35.5469 38.6719,-39.4531Q37.5,-40.2344 37.5,-40.625Q37.5,-41.0156 39.0625,-41.4062Q39.4531,-41.4062 39.8438,-41.4062Q46.4844,-42.1875 52.7344,-43.3594Q57.0312,-43.75 60.9375,-44.9219L60.9375,-52.7344Q61.3281,-71.0938 57.0312,-75.3906Q55.4688,-77.3438 56.25,-78.125Q56.6406,-78.9062 58.9844,-78.5156ZM23.0469,-49.2188Q24.2188,-50.3906 25.7812,-49.6094Q28.9062,-48.8281 31.6406,-46.875Q33.2031,-45.7031 31.6406,-44.5312Q28.125,-40.2344 27.7344,-32.8125Q26.9531,-22.6562 26.9531,-15.2344Q35.1562,-20.7031 41.0156,-24.2188Q42.1875,-25.3906 42.9688,-24.6094Q43.3594,-23.8281 42.1875,-22.6562Q27.7344,-8.59375 23.8281,-2.73438Q22.6562,-1.17188 21.0938,-2.73438Q19.5312,-5.07812 18.75,-8.20312Q17.9688,-9.76562 19.1406,-10.9375Q21.875,-14.4531 22.2656,-18.75Q22.2656,-21.875 22.6562,-30.0781Q23.0469,-39.0625 23.4375,-42.5781Q17.5781,-41.0156 10.5469,-37.8906Q8.59375,-35.9375 3.51562,-40.2344Q2.73438,-40.625 2.73438,-41.0156Q2.73438,-41.4062 3.90625,-41.7969Q10.9375,-42.9688 16.4062,-44.5312Q19.9219,-45.7031 23.0469,-49.2188ZM22.2656,-73.4375Q27.7344,-73.4375 31.25,-71.4844Q36.7188,-68.75 35.1562,-62.1094Q34.7656,-59.375 32.0312,-60.5469Q25.3906,-63.6719 21.0938,-71.875Q20.7031,-73.4375 22.2656,-73.4375Z"></path><path transform="translate(500 100)" d="M48.8281,-10.5469Q50.3906,-8.59375 51.9531,-10.9375Q53.9062,-13.6719 55.8594,-17.1875Q56.25,-18.3594 57.0312,-17.9688Q57.8125,-17.5781 57.4219,-16.4062Q56.6406,-8.98438 56.6406,-0.390625Q57.0312,2.73438 53.5156,1.5625Q47.2656,-0.78125 40.2344,-10.5469Q39.8438,-11.3281 38.6719,-13.2812Q36.3281,-16.7969 35.5469,-18.75Q25.3906,-9.375 10.5469,-4.6875Q8.98438,-4.29688 8.98438,-5.07812Q8.98438,-5.85938 10.1562,-6.25Q23.4375,-14.0625 32.8125,-23.8281Q29.6875,-30.8594 27.3438,-40.2344Q25.7812,-39.4531 22.6562,-38.6719Q20.7031,-37.8906 19.9219,-37.5Q15.625,-35.9375 9.76562,-36.7188Q8.98438,-37.1094 8.98438,-37.5Q8.98438,-37.8906 9.76562,-38.2812Q14.4531,-40.2344 26.1719,-44.9219Q25.3906,-50.3906 24.2188,-55.4688Q22.2656,-68.3594 19.1406,-70.7031Q18.3594,-71.875 18.75,-72.6562Q19.1406,-73.4375 20.7031,-73.0469Q24.6094,-72.2656 28.125,-70.3125Q28.125,-70.3125 28.5156,-69.9219Q29.6875,-69.1406 29.2969,-67.5781Q29.2969,-62.5 29.6875,-56.25Q30.4688,-51.5625 30.8594,-47.2656Q32.8125,-48.0469 36.3281,-50Q37.8906,-50.7812 38.6719,-51.1719Q43.75,-54.2969 47.6562,-51.9531Q48.8281,-51.1719 48.8281,-50.3906Q48.8281,-49.6094 47.2656,-48.8281Q41.0156,-45.3125 32.0312,-41.7969Q33.9844,-34.375 36.7188,-27.7344Q38.6719,-29.6875 39.8438,-31.6406Q44.1406,-37.1094 43.75,-39.4531Q43.3594,-41.0156 44.1406,-41.4062Q44.9219,-41.7969 46.0938,-40.625Q48.8281,-38.2812 50,-36.3281Q51.1719,-34.7656 49.6094,-33.5938Q49.2188,-33.2031 48.0469,-32.0312Q44.9219,-29.2969 44.1406,-27.7344Q43.3594,-26.9531 41.7969,-25Q40.2344,-23.4375 39.4531,-22.6562Q42.9688,-16.4062 48.8281,-10.5469ZM76.5625,-77.3438Q80.4688,-76.1719 84.7656,-73.4375Q85.9375,-72.6562 85.5469,-70.3125Q83.9844,-63.2812 84.375,-56.25Q84.375,-51.5625 84.7656,-39.4531Q85.5469,-17.9688 85.9375,-7.8125Q86.3281,1.5625 82.0312,7.8125Q80.0781,10.1562 78.125,7.8125Q72.6562,0.390625 67.5781,-4.29688Q66.7969,-4.6875 67.1875,-5.46875Q67.5781,-6.25 68.3594,-5.85938Q71.4844,-5.46875 75,-4.6875Q77.7344,-3.90625 78.5156,-7.03125Q80.4688,-14.0625 78.9062,-56.25Q78.125,-71.4844 74.6094,-75.3906Q74.2188,-76.5625 74.6094,-76.9531Q75,-77.7344 76.5625,-77.3438ZM60.9375,-58.5938Q64.0625,-57.4219 66.4062,-55.8594Q67.9688,-55.0781 67.1875,-53.125Q66.7969,-51.1719 66.7969,-44.9219L66.7969,-31.6406Q66.7969,-26.1719 65.625,-23.4375Q65.2344,-21.875 63.2812,-23.0469Q61.7188,-25.3906 60.9375,-27.7344Q60.5469,-29.2969 60.9375,-31.6406Q61.7188,-34.7656 61.7188,-47.2656Q61.3281,-53.9062 59.375,-56.6406Q58.5938,-57.8125 58.9844,-58.2031Q59.375,-58.9844 60.9375,-58.5938ZM39.0625,-68.3594Q43.3594,-68.3594 46.4844,-66.7969Q50.3906,-64.8438 49.6094,-60.1562Q49.6094,-57.4219 46.875,-58.5938Q41.7969,-60.9375 38.2812,-66.4062Q37.5,-67.9688 39.0625,-68.3594Z"></path><path transform="translate(0 200)" d="M37.8906,-62.5L37.8906,-13.6719Q37.5,-6.25 44.9219,-6.64062L49.6094,-6.64062L49.6094,-3.90625L17.9688,-3.90625L17.9688,-6.64062L23.0469,-6.64062Q30.0781,-6.25 29.6875,-13.6719L29.6875,-62.5L13.2812,-62.5Q8.59375,-62.8906 5.85938,-49.6094L3.125,-50L4.29688,-67.5781L6.25,-67.5781Q6.64062,-66.4062 8.98438,-66.0156L58.5938,-66.0156Q60.9375,-66.0156 61.3281,-67.5781L63.2812,-67.5781L64.4531,-50L61.7188,-49.6094Q59.375,-63.2812 54.2969,-62.5L37.8906,-62.5Z"></path><path transform="translate(68 200)" d="M16.0156,-33.5938L16.0156,-12.5Q16.0156,-6.25 21.4844,-6.64062L23.0469,-6.64062L23.0469,-3.90625L2.34375,-3.90625L2.34375,-6.64062L3.90625,-6.64062Q8.98438,-6.25 8.98438,-12.5L8.98438,-55.0781Q8.98438,-60.9375 5.85938,-61.3281L2.34375,-61.3281L2.34375,-63.6719L13.6719,-67.5781L16.0156,-67.5781L16.0156,-37.1094Q23.8281,-44.9219 32.0312,-44.5312Q43.75,-44.1406 43.75,-29.6875L43.75,-12.5Q43.3594,-6.25 49.2188,-6.64062L50.7812,-6.64062L50.7812,-3.90625L30.0781,-3.90625L30.0781,-6.64062L31.6406,-6.64062Q37.1094,-6.25 36.7188,-12.5L36.7188,-29.6875Q36.7188,-39.0625 28.9062,-39.4531Q23.0469,-39.4531 16.0156,-33.5938Z"></path><path transform="translate(120 200)" d="M40.625,-26.1719L12.5,-26.1719Q12.5,-25 12.5,-23.0469Q13.2812,-8.98438 25.3906,-8.20312Q31.25,-8.20312 37.5,-14.4531L39.8438,-11.7188Q32.0312,-3.125 22.2656,-3.125Q5.46875,-4.29688 4.6875,-23.0469Q5.85938,-43.3594 23.0469,-44.5312Q39.4531,-43.3594 40.625,-26.1719ZM12.8906,-29.2969L32.8125,-29.2969Q30.8594,-41.4062 23.0469,-41.4062Q14.8438,-40.625 12.8906,-29.2969Z"></path><path transform="translate(163 200)" d=""></path><path transform="translate(196 200)" d="M19.5312,-29.6875L19.5312,-13.2812Q19.1406,-6.25 26.1719,-6.64062L28.9062,-6.64062L28.9062,-3.90625L3.51562,-3.90625L3.51562,-6.64062L5.46875,-6.64062Q11.7188,-5.85938 11.3281,-13.2812L11.3281,-57.0312Q11.3281,-64.0625 5.46875,-63.6719L1.95312,-63.6719L1.95312,-66.0156L27.3438,-66.0156Q53.125,-66.0156 53.125,-48.0469Q52.7344,-30.0781 27.3438,-29.6875L19.5312,-29.6875ZM19.5312,-63.6719L19.5312,-32.0312L27.3438,-32.0312Q43.75,-32.0312 43.75,-48.0469Q43.3594,-63.2812 27.3438,-63.6719L19.5312,-63.6719Z"></path><path transform="translate(252 200)" d="M16.0156,-30.0781L16.0156,-12.1094Q15.625,-6.25 21.4844,-6.64062L25,-6.64062L25,-3.90625L1.95312,-3.90625L1.95312,-6.64062L3.90625,-6.64062Q9.375,-6.25 8.98438,-12.1094L8.98438,-31.6406Q8.98438,-36.7188 6.64062,-37.1094L2.73438,-37.1094L2.73438,-39.4531L13.6719,-44.5312L16.0156,-44.5312L16.0156,-33.9844Q21.4844,-44.5312 25.7812,-44.5312Q30.4688,-44.5312 33.9844,-41.0156L30.8594,-35.1562Q28.125,-38.2812 24.6094,-38.2812Q21.4844,-38.6719 16.0156,-30.0781Z"></path><path transform="translate(284 200)" d="M4.29688,-23.4375Q5.07812,-43.75 26.1719,-44.5312Q46.4844,-43.75 47.2656,-23.4375Q46.4844,-3.90625 26.5625,-3.125Q5.07812,-3.90625 4.29688,-23.4375ZM12.1094,-26.5625Q12.8906,-7.03125 27.3438,-6.25Q39.0625,-7.03125 39.4531,-21.0938Q38.6719,-40.625 24.6094,-41.4062Q12.8906,-40.625 12.1094,-26.5625Z"></path><path transform="translate(336 200)" d="M16.7969,-44.5312L16.7969,-2.73438Q16.4062,17.9688 1.17188,18.3594Q-7.8125,17.5781 -8.98438,12.1094Q-8.59375,8.59375 -5.46875,8.20312Q-3.125,8.59375 -1.5625,10.9375Q1.17188,14.4531 3.51562,14.0625Q9.375,13.6719 9.76562,2.73438L9.76562,-30.8594Q9.76562,-37.1094 6.25,-37.5L2.34375,-37.5L2.34375,-39.8438L14.4531,-44.5312L16.7969,-44.5312ZM7.42188,-62.8906Q7.8125,-67.1875 12.5,-67.5781Q17.1875,-67.1875 17.5781,-62.8906Q17.1875,-58.2031 12.5,-57.8125Q7.8125,-58.2031 7.42188,-62.8906Z"></path><path transform="translate(361 200)" d="M40.625,-26.1719L12.5,-26.1719Q12.5,-25 12.5,-23.0469Q13.2812,-8.98438 25.3906,-8.20312Q31.25,-8.20312 37.5,-14.4531L39.8438,-11.7188Q32.0312,-3.125 22.2656,-3.125Q5.46875,-4.29688 4.6875,-23.0469Q5.85938,-43.3594 23.0469,-44.5312Q39.4531,-43.3594 40.625,-26.1719ZM12.8906,-29.2969L32.8125,-29.2969Q30.8594,-41.4062 23.0469,-41.4062Q14.8438,-40.625 12.8906,-29.2969Z"></path><path transform="translate(404 200)" d="M37.1094,-14.8438L39.0625,-12.8906Q32.4219,-2.73438 22.2656,-3.125Q5.46875,-4.29688 4.6875,-21.875Q5.46875,-43.75 26.1719,-44.5312Q37.8906,-44.1406 38.6719,-38.2812Q38.2812,-35.5469 35.5469,-35.1562Q32.8125,-35.1562 30.8594,-37.8906Q28.5156,-41.4062 24.2188,-41.4062Q13.2812,-39.8438 12.5,-24.2188Q12.8906,-7.8125 25,-7.42188Q30.8594,-7.42188 37.1094,-14.8438Z"></path><path transform="translate(447 200)" d="M14.4531,-44.5312L26.9531,-44.5312L26.9531,-40.2344L14.4531,-40.2344L14.4531,-16.4062Q14.8438,-8.98438 19.5312,-8.98438Q23.0469,-8.98438 26.1719,-14.0625L28.5156,-12.1094Q23.8281,-3.125 16.7969,-3.125Q7.42188,-3.125 7.03125,-15.2344L7.03125,-40.2344L1.17188,-40.2344L1.17188,-42.9688Q9.76562,-45.7031 12.1094,-57.8125L14.4531,-57.8125L14.4531,-44.5312Z"></path><path transform="translate(476 200)" d=""></path><path transform="translate(509 200)" d="M40.625,-46.0938L40.625,-26.5625L38.2812,-26.5625Q37.8906,-35.1562 32.0312,-34.7656L17.5781,-34.7656L17.5781,-13.2812Q17.1875,-6.25 23.8281,-6.64062L26.5625,-6.64062L26.5625,-3.90625L1.95312,-3.90625L1.95312,-6.64062L3.51562,-6.64062Q9.76562,-6.25 9.375,-12.8906L9.375,-57.0312Q9.76562,-64.0625 3.90625,-63.6719L1.95312,-63.6719L1.95312,-66.0156L48.4375,-66.0156L49.2188,-50.7812L46.875,-50.3906Q44.9219,-64.0625 38.6719,-63.6719L17.5781,-63.6719L17.5781,-37.5L32.0312,-37.5Q37.8906,-36.7188 38.2812,-46.0938L40.625,-46.0938Z"></path><path transform="translate(561 200)" d="M4.29688,-23.4375Q5.07812,-43.75 26.1719,-44.5312Q46.4844,-43.75 47.2656,-23.4375Q46.4844,-3.90625 26.5625,-3.125Q5.07812,-3.90625 4.29688,-23.4375ZM12.1094,-26.5625Q12.8906,-7.03125 27.3438,-6.25Q39.0625,-7.03125 39.4531,-21.0938Q38.6719,-40.625 24.6094,-41.4062Q12.8906,-40.625 12.1094,-26.5625Z"></path><path transform="translate(613 200)" d="M16.0156,-30.0781L16.0156,-12.1094Q15.625,-6.25 21.4844,-6.64062L25,-6.64062L25,-3.90625L1.95312,-3.90625L1.95312,-6.64062L3.90625,-6.64062Q9.375,-6.25 8.98438,-12.1094L8.98438,-31.6406Q8.98438,-36.7188 6.64062,-37.1094L2.73438,-37.1094L2.73438,-39.4531L13.6719,-44.5312L16.0156,-44.5312L16.0156,-33.9844Q21.4844,-44.5312 25.7812,-44.5312Q30.4688,-44.5312 33.9844,-41.0156L30.8594,-35.1562Q28.125,-38.2812 24.6094,-38.2812Q21.4844,-38.6719 16.0156,-30.0781Z"></path><path transform="translate(645 200)" d=""></path><path transform="translate(678 200)" d="M68.75,-3.125L63.6719,-3.125L50.3906,-33.2031L38.2812,-3.125L33.2031,-3.125L11.7188,-55.0781Q7.8125,-63.6719 1.5625,-63.6719L0,-63.6719L0,-66.0156L25.3906,-66.0156L25.3906,-63.6719L23.4375,-63.6719Q16.4062,-64.0625 19.5312,-57.0312L38.2812,-12.5L48.4375,-37.8906L39.4531,-57.8125Q36.3281,-63.6719 32.8125,-63.6719L31.6406,-63.6719L31.6406,-66.0156L69.5312,-66.0156L69.5312,-63.6719L68.3594,-63.6719Q63.2812,-63.6719 60.9375,-58.5938L54.6875,-43.3594L68.3594,-12.1094L85.5469,-56.25Q87.1094,-60.1562 86.3281,-62.1094Q85.1562,-63.6719 81.25,-63.6719L78.5156,-63.6719L78.5156,-66.0156L99.2188,-66.0156L99.2188,-63.6719L98.0469,-63.6719Q92.1875,-64.0625 88.6719,-54.6875L68.75,-3.125ZM52.7344,-47.6562L57.4219,-59.375Q59.7656,-63.6719 54.6875,-63.6719L50,-63.6719Q47.6562,-63.6719 46.875,-62.5Q46.4844,-61.7188 47.6562,-59.375L52.7344,-47.6562Z"></path><path transform="translate(778 200)" d="M40.625,-26.1719L12.5,-26.1719Q12.5,-25 12.5,-23.0469Q13.2812,-8.98438 25.3906,-8.20312Q31.25,-8.20312 37.5,-14.4531L39.8438,-11.7188Q32.0312,-3.125 22.2656,-3.125Q5.46875,-4.29688 4.6875,-23.0469Q5.85938,-43.3594 23.0469,-44.5312Q39.4531,-43.3594 40.625,-26.1719ZM12.8906,-29.2969L32.8125,-29.2969Q30.8594,-41.4062 23.0469,-41.4062Q14.8438,-40.625 12.8906,-29.2969Z"></path><path transform="translate(821 200)" d="M14.8438,-67.5781L14.8438,-37.8906Q22.2656,-44.5312 29.2969,-44.5312Q44.9219,-43.75 45.7031,-25Q45.3125,-3.51562 22.2656,-3.125Q14.8438,-3.125 7.8125,-6.64062L7.8125,-55.4688Q7.8125,-61.3281 4.29688,-61.3281L0.78125,-61.3281L0.78125,-63.6719L12.5,-67.5781L14.8438,-67.5781ZM14.8438,-34.7656L14.8438,-15.625Q15.625,-7.03125 25,-6.25Q37.1094,-7.42188 37.8906,-23.4375Q37.8906,-39.8438 26.1719,-39.8438Q20.7031,-39.8438 14.8438,-34.7656Z"></path></svg>