<svg  xmlns="http://www.w3.org/2000/svg" xmlns:xlink="http://www.w3.org/1999/xlink" width="1471" height="100" viewBox="0 0 1495 124"><path transform="translate(0 100)" d="M22.3,-60.3L23.4,-58L46,-58L46,-74.9L43.9,-77.1L43.9,-79.2L54.2,-79.2L54.2,-58L75.8,-58L80.4,-62.7Q81.3,-62.1 82.4,-61.2Q83.5,-60.3 84.6,-59.35Q85.7,-58.4 86.7,-57.4Q87.7,-56.4 88.3,-55.6L84.6,-51.4L84.6,-21.8L76.9,-21.8L76.9,-26.9L54.2,-26.9L54.2,9.2L46,9.2L46,-26.9L23.4,-26.9L23.4,-20.5L15.7,-20.5L15.7,-56.4L13.5,-58.3L13.5,-60.3L22.3,-60.3ZM54.2,-55.6L54.2,-29.3L76.9,-29.3L76.9,-55.6L54.2,-55.6ZM23.4,-29.3L46,-29.3L46,-55.6L23.4,-55.6L23.4,-29.3Z"></path><path transform="translate(100 100)" d="M6.3,7.5Q18.2,2.1 28.15,-4Q38.1,-10.1 45.9,-18.3Q39.5,-25.9 35.15,-35.7Q30.8,-45.5 29,-58.1L8.8,-58.1L8.1,-60.6L79,-60.6L84.1,-66.7Q85.1,-66.1 86.5,-65.15Q87.9,-64.2 89.25,-63.2Q90.6,-62.2 91.85,-61.2Q93.1,-60.2 93.9,-59.3L92.9,-58.1L73.8,-58.1Q71.2,-46.9 67.05,-37.15Q62.9,-27.4 56,-19.2Q64.3,-12.8 73.9,-8.5Q83.5,-4.2 93.4,-1.3L93.3,-0.1Q92.3,0.3 91.1,1.2Q89.9,2.1 88.75,3.25Q87.6,4.4 86.65,5.55Q85.7,6.7 85.2,7.6Q75.2,3.9 66.4,-1.15Q57.6,-6.2 50.4,-13.3Q42.9,-6.2 32.35,-0.7Q21.8,4.8 7.2,8.6L6.3,7.5ZM31.1,-58.1Q33.5,-47.2 38.6,-38.75Q43.7,-30.3 50.6,-23.8Q55.9,-30.6 59.65,-39Q63.4,-47.4 65.5,-58.1L31.1,-58.1ZM38.9,-80.3Q41.3,-79.5 44.4,-78.3Q47.5,-77.1 50.05,-75.2Q52.6,-73.3 53.95,-70.55Q55.3,-67.8 54.2,-63.9L48.7,-62Q46.7,-66.8 44.25,-70.65Q41.8,-74.5 37.9,-79L38.9,-80.3Z"></path><path transform="translate(200 100)" d="M19.2,-76L20.3,-73.6L78.5,-73.6L83,-78.2Q84.7,-77 87.1,-74.9Q89.5,-72.8 90.8,-71.2L87.6,-68.1L87.6,1.8Q87.6,3.3 86.9,4.65Q86.2,6 85.2,7.1Q84.2,8.2 83.1,9Q82,9.8 81.3,10.2L64.1,1.1L64.5,-0L80,0.9L80,-71.1L20.3,-71.1L20.3,8.5L12.8,8.5L12.8,-71.8L10.6,-73.9L10.6,-76L19.2,-76ZM46,-11.6Q50,-17.1 53.6,-23.55Q57.2,-30 60.1,-36.5Q57.3,-42 54.4,-46.8Q51.5,-51.6 48.8,-55.3L49.6,-56.2Q52.8,-53.6 56.2,-50.25Q59.6,-46.9 62.8,-43Q64.3,-47.1 65.3,-50.65Q66.3,-54.2 66.7,-57L65.7,-59L66.3,-60.8L74.7,-59.5Q73,-53.8 71.05,-48.35Q69.1,-42.9 66.7,-37.6Q70.5,-31.7 72.5,-25.45Q74.5,-19.2 73.1,-13.2L69.1,-12.7Q68,-17.1 66.45,-21.55Q64.9,-26 63,-30.4Q59.8,-24.7 55.9,-19.85Q52,-15 47,-10.9L46,-11.6ZM21,-12.1Q24.7,-17.5 27.95,-23.85Q31.2,-30.2 33.8,-36.5Q30.9,-42.2 27.65,-47.15Q24.4,-52.1 21.4,-56L22.2,-56.9Q25.7,-54.3 29.4,-50.85Q33.1,-47.4 36.4,-43.5Q37.8,-47.8 38.8,-51.55Q39.8,-55.3 40.1,-58.2L39,-60.2L39.5,-62L47.9,-61Q46.4,-55 44.55,-49.3Q42.7,-43.6 40.4,-38.1Q44.1,-32.7 45.95,-26.95Q47.8,-21.2 46.6,-15.5L42.5,-15Q41.4,-18.9 39.95,-22.8Q38.5,-26.7 36.8,-30.5Q33.9,-25.1 30.3,-20.35Q26.7,-15.6 22,-11.5L21,-12.1Z"></path><path transform="translate(300 100)" d="M45.4,-26.3L45.4,-34.4L43.2,-36.1L43.2,-38.1L53.3,-38.1L53.3,-37.8Q56.3,-40.2 59.3,-42.75Q62.3,-45.3 64.3,-47.6L23.5,-47.6L22.9,-50.1L64.9,-50.1L70.4,-53.9Q71.1,-53.1 72.05,-52.05Q73,-51 73.9,-49.8Q74.8,-48.6 75.6,-47.45Q76.4,-46.3 76.9,-45.4L71.3,-43.6Q67.4,-41.4 62.45,-38.85Q57.5,-36.3 53.3,-34.4L53.3,-26.3L78.5,-26.3L83.8,-32.7Q84.9,-32.1 86.3,-31.1Q87.7,-30.1 89.15,-29.05Q90.6,-28 91.9,-26.9Q93.2,-25.8 94,-24.9L93,-23.7L53.3,-23.7L53.3,1.4Q53.3,3.1 52.55,4.5Q51.8,5.9 50.75,6.95Q49.7,8 48.55,8.75Q47.4,9.5 46.7,9.8L28.1,-0L28.5,-1.1L45.4,-0.1L45.4,-23.7L6.7,-23.7L6,-26.3L45.4,-26.3ZM6.2,-52.8Q9.8,-57.1 11.95,-61.05Q14.1,-65 16,-70L17.5,-69.8Q17.8,-68.8 18.3,-66.3L49.6,-66.3Q47.5,-70.1 45.35,-72.75Q43.2,-75.4 39.9,-78.4L40.8,-79.7Q43.9,-79.2 46.75,-78.55Q49.6,-77.9 51.65,-76.7Q53.7,-75.5 54.7,-73.5Q55.7,-71.5 55,-68.3L50.9,-66.3L82.1,-66.3L87,-70.4Q87.8,-69.7 88.85,-68.7Q89.9,-67.7 90.9,-66.55Q91.9,-65.4 92.8,-64.35Q93.7,-63.3 94.3,-62.4L89.4,-59.9L79.8,-51.3L78.5,-52.1L82.7,-63.8L18.6,-63.8Q18.7,-61.8 18.45,-59.55Q18.2,-57.3 17.25,-55.2Q16.3,-53.1 14.55,-51.45Q12.8,-49.8 10,-48.9L6.2,-52.8Z"></path><path transform="translate(400 100)" d="M70.3,-79.5L70.3,-45.3L81.4,-45.3L86.6,-51.5Q87.6,-50.9 89,-49.95Q90.4,-49 91.8,-47.95Q93.2,-46.9 94.45,-45.9Q95.7,-44.9 96.5,-44L95.5,-42.8L70.3,-42.8L70.3,9.6L62.3,9.6L62.3,-42.8L37,-42.8L36.3,-45.3L62.3,-45.3L62.3,-75.2L60.2,-77.3L60.2,-79.5L70.3,-79.5ZM20.3,-1.6L20.3,-43.5L6.3,-43.5L5.7,-45.9L18.9,-45.9L23.4,-50.4Q24.2,-49.8 25.3,-48.95Q26.4,-48.1 27.45,-47.1Q28.5,-46.1 29.5,-45.15Q30.5,-44.2 31.1,-43.5L28,-40.4L28,-5.5Q30.2,-6.7 32.3,-7.85Q34.4,-9 36.7,-10.25Q39,-11.5 41.6,-13Q44.2,-14.5 47.4,-16.4L48.2,-15.3Q46.6,-13.2 44,-10.65Q41.4,-8.1 38.35,-5.5Q35.3,-2.9 31.95,-0.35Q28.6,2.2 25.6,4.3L25.3,7L23.5,8.2L16.5,0.2L20.3,-1.6ZM14.6,-78.1Q18.8,-77.2 22.4,-75.75Q26,-74.3 28.5,-72.25Q31,-70.2 32.2,-67.35Q33.4,-64.5 32.7,-60.7L27.6,-58.5Q24.9,-63.6 21.45,-68.3Q18,-73 13.8,-76.7L14.6,-78.1Z"></path><path transform="translate(500 100)" d="M6.7,4Q13.4,-0.5 19.05,-5.7Q24.7,-10.9 29.4,-16.5Q27.1,-22.5 25.65,-30.75Q24.2,-39 23.4,-48.3L7.6,-46.9L6.7,-49.3L23.2,-50.8Q22.7,-56.9 22.5,-63Q22.3,-69.1 22.2,-74.8L20.1,-76.9L20.1,-79L29.6,-79Q29.6,-70.6 29.75,-63.85Q29.9,-57.1 30.3,-51.4L47.8,-53L52,-59Q53,-58.5 54.4,-57.75Q55.8,-57 57.2,-56.15Q58.6,-55.3 59.85,-54.45Q61.1,-53.6 61.9,-52.9L61.1,-51.7L30.5,-48.9Q31.1,-41.1 32.15,-35.05Q33.2,-29 34.7,-23.4Q38.2,-28.2 40.75,-32.65Q43.3,-37.1 45.1,-41.1L44.5,-43.9L45.6,-45.6L54.3,-41.5Q51.1,-35.7 47,-29.05Q42.9,-22.4 37.4,-15.9Q40.3,-9.8 44.3,-5.95Q48.3,-2.1 52.5,-0.4L56.7,-16.9L58.1,-16.7L59.7,6.8Q59,7.2 58,7.35Q57,7.5 56.2,7.5Q49.6,7.5 43.2,2.95Q36.8,-1.6 32.2,-10.3Q27.1,-5.3 21.05,-1.25Q15,2.8 7.5,5.5L6.7,4ZM68.8,-0.4L82.8,0.5L82.8,-75.1L80.7,-77L80.7,-79L90.1,-79L90.1,1.2Q90.1,2.9 89.45,4.25Q88.8,5.6 87.9,6.65Q87,7.7 86.05,8.4Q85.1,9.1 84.5,9.5L68.5,0.7L68.8,-0.4ZM72.7,-67.8L72.7,-13.6L65.5,-13.6L65.5,-63.8L63.4,-65.8L63.4,-67.8L72.7,-67.8ZM33.9,-75.6Q37.4,-75 40.65,-73.9Q43.9,-72.8 46.25,-71.2Q48.6,-69.6 49.7,-67.45Q50.8,-65.3 50.1,-62.6L45.4,-60.4Q42.8,-64.2 39.75,-67.8Q36.7,-71.4 33.2,-74.3L33.9,-75.6Z"></path><path transform="translate(600 100)" d=""></path><path transform="translate(600 100)" d="M26.2,-3.1L26.2,-64.3L15.1,-64.3Q11.5,-64.3 9.55,-62.05Q7.6,-59.8 5.5,-53.7L1.6,-53.7L2.4,-68.2L58.9,-68.2L59.7,-53.7L55.8,-53.7Q53.5,-59.8 51.65,-62.05Q49.8,-64.3 46.6,-64.3L35.2,-64.3L35.2,-3.1L42.6,-0.6L42.6,1.8L18.8,1.8L18.8,-0.6L26.2,-3.1Z"></path><path transform="translate(661 100)" d="M9.4,-2.6L9.4,-66.5L4.1,-69L4.1,-71.6L17.8,-73.5L17.8,-38.7Q22.9,-42.5 26.95,-44.45Q31,-46.4 34.8,-46.4Q41.4,-46.4 44.6,-42.45Q47.8,-38.5 47.8,-31.3L47.8,-2.6L54.6,-0.2L54.6,1.8L33.1,1.8L33.1,-0.2L39.4,-2.6L39.4,-27.7Q39.4,-34.3 37.5,-37.1Q35.6,-39.9 31.6,-39.9Q29.1,-39.9 25.95,-38.75Q22.8,-37.6 17.8,-34.2L17.8,-2.6L24,-0.2L24,1.8L2.6,1.8L2.6,-0.2L9.4,-2.6Z"></path><path transform="translate(717 100)" d="M3.8,-20Q3.8,-27.7 6.6,-33.65Q9.4,-39.6 14.45,-43Q19.5,-46.4 26.1,-46.4Q30.8,-46.4 34.65,-44.1Q38.5,-41.8 40.65,-37.65Q42.8,-33.5 42.8,-28.3L36.7,-24.6L12.5,-24.6Q12.5,-2.6 28.3,-2.6Q31.3,-2.6 34.85,-4Q38.4,-5.4 40.6,-7.7L42.8,-5.3Q39.5,-1.3 34.9,0.85Q30.3,3 25.5,3Q19.1,3 14.15,0.1Q9.2,-2.8 6.5,-8Q3.8,-13.2 3.8,-20ZM24.9,-42.6Q20.5,-42.6 17.3,-38.55Q14.1,-34.5 13,-28.4L34.5,-28.4Q34.5,-34.4 31.8,-38.5Q29.1,-42.6 24.9,-42.6Z"></path><path transform="translate(764 100)" d=""></path><path transform="translate(789 100)" d="M11.4,-3.1L11.4,-63.4L4.2,-65.9L4.2,-68.2L25.1,-68.2Q38.3,-68.2 45.25,-63.55Q52.2,-58.9 52.2,-49.5Q52.2,-28.6 24.4,-28.6L20.4,-28.6L20.4,-3.1L27.6,-0.6L27.6,1.8L4.2,1.8L4.2,-0.6L11.4,-3.1ZM42.8,-49Q42.8,-56.8 38,-60.6Q33.2,-64.4 22.9,-64.4L20.4,-64.4L20.4,-32.5L22.9,-32.5Q33.1,-32.5 37.95,-36.7Q42.8,-40.9 42.8,-49Z"></path><path transform="translate(842 100)" d="M10.2,-2.7L10.2,-39.6L5,-42L5,-44.4L17.5,-46L18.4,-38.2Q22.6,-42.1 26.5,-44Q30.4,-45.9 33.5,-45.9Q36.2,-45.9 38.1,-44.9L37.7,-34.2L33.7,-34.2Q32.7,-37.2 31.8,-38.4Q30.9,-39.6 28.8,-39.6Q24.9,-39.6 18.6,-34L18.6,-2.7L26.4,-0.2L26.4,1.8L3.2,1.8L3.2,-0.2L10.2,-2.7Z"></path><path transform="translate(881 100)" d="M4.2,-21.5Q4.2,-29 7.15,-34.6Q10.1,-40.2 15.45,-43.3Q20.8,-46.4 27.7,-46.4Q34.3,-46.4 39.45,-43.3Q44.6,-40.2 47.45,-34.65Q50.3,-29.1 50.3,-21.9Q50.3,-14.5 47.45,-8.85Q44.6,-3.2 39.4,-0.1Q34.2,3 27.2,3Q20.5,3 15.25,0Q10,-3 7.1,-8.55Q4.2,-14.1 4.2,-21.5ZM41.3,-20.4Q41.3,-30.9 37.4,-36.75Q33.5,-42.6 26.9,-42.6Q23,-42.6 19.9,-40.15Q16.8,-37.7 15,-33.2Q13.2,-28.7 13.2,-22.8Q13.2,-12.1 17.25,-6.45Q21.3,-0.8 27.7,-0.8Q33.9,-0.8 37.6,-6.25Q41.3,-11.7 41.3,-20.4Z"></path><path transform="translate(935 100)" d="M6.6,-64.9Q6.6,-67.3 8.3,-69.05Q10,-70.8 12.4,-70.8Q14.8,-70.8 16.5,-69.05Q18.2,-67.3 18.2,-64.9Q18.2,-62.5 16.5,-60.8Q14.8,-59.1 12.4,-59.1Q10,-59.1 8.3,-60.8Q6.6,-62.5 6.6,-64.9ZM8.9,-10.7L8.9,-40L3.8,-42.4L3.8,-44.8L17.3,-46.4L17.3,-11.5Q17.3,-1.1 15.7,5.2Q14.1,11.5 10.8,15.45Q7.5,19.4 1.6,23.1L0,21Q3.5,17.4 5.35,13.95Q7.2,10.5 8.05,4.8Q8.9,-0.9 8.9,-10.7Z"></path><path transform="translate(960 100)" d="M3.8,-20Q3.8,-27.7 6.6,-33.65Q9.4,-39.6 14.45,-43Q19.5,-46.4 26.1,-46.4Q30.8,-46.4 34.65,-44.1Q38.5,-41.8 40.65,-37.65Q42.8,-33.5 42.8,-28.3L36.7,-24.6L12.5,-24.6Q12.5,-2.6 28.3,-2.6Q31.3,-2.6 34.85,-4Q38.4,-5.4 40.6,-7.7L42.8,-5.3Q39.5,-1.3 34.9,0.85Q30.3,3 25.5,3Q19.1,3 14.15,0.1Q9.2,-2.8 6.5,-8Q3.8,-13.2 3.8,-20ZM24.9,-42.6Q20.5,-42.6 17.3,-38.55Q14.1,-34.5 13,-28.4L34.5,-28.4Q34.5,-34.4 31.8,-38.5Q29.1,-42.6 24.9,-42.6Z"></path><path transform="translate(1007 100)" d="M2.8,-20.6Q2.8,-28.1 5.8,-34Q8.8,-39.9 14.1,-43.15Q19.4,-46.4 25.9,-46.4Q33.8,-46.4 38.7,-43.8L38.6,-34.3L34.7,-34.3Q31.8,-39 29.8,-40.6Q27.8,-42.2 24.7,-42.2Q18.5,-42.2 14.75,-37.05Q11,-31.9 11.1,-23.3Q11.1,-17.3 13.2,-12.65Q15.3,-8 19,-5.45Q22.7,-2.9 27.5,-2.9Q30.4,-2.9 33.35,-4.3Q36.3,-5.7 38.4,-8L40.9,-5.6Q37.7,-1.5 33.45,0.75Q29.2,3 24.6,3Q18.1,3 13.2,0.1Q8.3,-2.8 5.55,-8.15Q2.8,-13.5 2.8,-20.6Z"></path><path transform="translate(1049 100)" d="M8.9,-7.8L8.9,-41L-0.2,-41L-0.2,-43.2L8.9,-46.4L8.9,-55.7L17.3,-57.7L17.3,-45.2L30,-45.2L30,-41L17.3,-41L17.3,-8.4Q17.3,-5.1 18.4,-3.7Q19.5,-2.3 21.7,-2.3Q23.7,-2.3 26.3,-3.15Q28.9,-4 30.6,-5.4L32.2,-3.3Q28.9,-0.3 25.7,1.2Q22.5,2.7 18.6,2.7Q14,2.7 11.45,0.1Q8.9,-2.5 8.9,-7.8Z"></path><path transform="translate(1081 100)" d=""></path><path transform="translate(1106 100)" d="M11.6,-3.1L11.6,-63.3L4.2,-65.8L4.2,-68.2L49.9,-68.2L50.5,-53.8L46.4,-53.8Q45.3,-58.3 44.3,-60.25Q43.3,-62.2 40.55,-63.25Q37.8,-64.3 32.1,-64.3L20.6,-64.4L20.6,-37L32.5,-37Q35.8,-37 37.35,-38.85Q38.9,-40.7 40.2,-45.8L43.2,-45.8L43.2,-24.6L40.2,-24.6Q38.6,-29.7 37.05,-31.5Q35.5,-33.3 32.5,-33.3L20.6,-33.3L20.6,-3.1L27.6,-0.6L27.6,1.8L4.2,1.8L4.2,-0.6L11.6,-3.1Z"></path><path transform="translate(1154 100)" d="M4.2,-21.5Q4.2,-29 7.15,-34.6Q10.1,-40.2 15.45,-43.3Q20.8,-46.4 27.7,-46.4Q34.3,-46.4 39.45,-43.3Q44.6,-40.2 47.45,-34.65Q50.3,-29.1 50.3,-21.9Q50.3,-14.5 47.45,-8.85Q44.6,-3.2 39.4,-0.1Q34.2,3 27.2,3Q20.5,3 15.25,0Q10,-3 7.1,-8.55Q4.2,-14.1 4.2,-21.5ZM41.3,-20.4Q41.3,-30.9 37.4,-36.75Q33.5,-42.6 26.9,-42.6Q23,-42.6 19.9,-40.15Q16.8,-37.7 15,-33.2Q13.2,-28.7 13.2,-22.8Q13.2,-12.1 17.25,-6.45Q21.3,-0.8 27.7,-0.8Q33.9,-0.8 37.6,-6.25Q41.3,-11.7 41.3,-20.4Z"></path><path transform="translate(1207 100)" d="M10.2,-2.7L10.2,-39.6L5,-42L5,-44.4L17.5,-46L18.4,-38.2Q22.6,-42.1 26.5,-44Q30.4,-45.9 33.5,-45.9Q36.2,-45.9 38.1,-44.9L37.7,-34.2L33.7,-34.2Q32.7,-37.2 31.8,-38.4Q30.9,-39.6 28.8,-39.6Q24.9,-39.6 18.6,-34L18.6,-2.7L26.4,-0.2L26.4,1.8L3.2,1.8L3.2,-0.2L10.2,-2.7Z"></path><path transform="translate(1242 100)" d=""></path><path transform="translate(1267 100)" d="M6.9,-63.3L0,-65.8L0,-68.2L22.5,-68.2L22.5,-65.8L16.8,-63.3L34,-9.9L50.3,-58.8L48.7,-63.3L41.8,-65.8L41.8,-68.2L64.3,-68.2L64.3,-65.8L58.6,-63.3L77,-9.9L93.6,-63.3L87.7,-65.8L87.7,-68.2L105.8,-68.2L105.8,-65.8L98.8,-63.3L77.1,2.6L73.1,2.6L53,-51.4L34.1,2.6L30.1,2.6L6.9,-63.3Z"></path><path transform="translate(1372 100)" d="M3.8,-20Q3.8,-27.7 6.6,-33.65Q9.4,-39.6 14.45,-43Q19.5,-46.4 26.1,-46.4Q30.8,-46.4 34.65,-44.1Q38.5,-41.8 40.65,-37.65Q42.8,-33.5 42.8,-28.3L36.7,-24.6L12.5,-24.6Q12.5,-2.6 28.3,-2.6Q31.3,-2.6 34.85,-4Q38.4,-5.4 40.6,-7.7L42.8,-5.3Q39.5,-1.3 34.9,0.85Q30.3,3 25.5,3Q19.1,3 14.15,0.1Q9.2,-2.8 6.5,-8Q3.8,-13.2 3.8,-20ZM24.9,-42.6Q20.5,-42.6 17.3,-38.55Q14.1,-34.5 13,-28.4L34.5,-28.4Q34.5,-34.4 31.8,-38.5Q29.1,-42.6 24.9,-42.6Z"></path><path transform="translate(1418 100)" d="M13.2,-0.5L10,1.8L7.4,1.8L7.4,-66.5L1.6,-69L1.6,-71.6L15.8,-73.5L15.8,-37.8Q24.9,-45.2 31.9,-45.2Q39.8,-45.2 44.2,-39.1Q48.6,-33 48.6,-22.3Q48.6,-14.7 45.7,-8.95Q42.8,-3.2 37.5,-0.1Q32.2,3 25.2,3Q22.1,3 18.9,2.05Q15.7,1.1 13.2,-0.5ZM39.7,-21Q39.7,-29.6 36.7,-34.3Q33.7,-39 28.7,-39Q25.9,-39 22.85,-37.85Q19.8,-36.7 15.8,-33.5L15.8,-7.4Q18.1,-3.9 20.45,-2.25Q22.8,-0.6 25.6,-0.6Q32.1,-0.6 35.9,-6.35Q39.7,-12.1 39.7,-21Z"></path></svg>